<svg width="24" height="20" viewBox="0 0 24 20" fill="none" xmlns="http://www.w3.org/2000/svg">
<path d="M20.3356 2.49607C20.329 2.48327 20.318 2.47324 20.3047 2.46777C18.7635 1.76064 17.137 1.2564 15.4661 0.967667C15.4509 0.964845 15.4352 0.966881 15.4213 0.973486C15.4073 0.980091 15.3958 0.990928 15.3884 1.00446C15.1669 1.40642 14.9658 1.81931 14.786 2.24154C12.9848 1.96812 11.1527 1.96812 9.35147 2.24154C9.17042 1.81824 8.96616 1.40525 8.7396 1.00446C8.73183 0.991222 8.72025 0.980634 8.70638 0.974073C8.6925 0.967511 8.67698 0.965279 8.66182 0.967667C6.99069 1.25579 5.36415 1.76007 3.82312 2.46781C3.80993 2.47341 3.7988 2.48295 3.79127 2.49514C0.709515 7.09733 -0.134693 11.5864 0.279447 16.0198C0.280612 16.0307 0.28395 16.0412 0.289263 16.0507C0.294576 16.0603 0.301755 16.0687 0.310374 16.0754C2.10485 17.4041 4.11199 18.4183 6.24615 19.0747C6.26118 19.0792 6.27723 19.079 6.29214 19.0741C6.30705 19.0692 6.3201 19.0599 6.32955 19.0473C6.78792 18.4237 7.19407 17.7632 7.54387 17.0728C7.54868 17.0633 7.55142 17.0529 7.55192 17.0423C7.55243 17.0317 7.55067 17.0211 7.54678 17.0112C7.54289 17.0013 7.53694 16.9924 7.52934 16.985C7.52174 16.9775 7.51265 16.9718 7.50268 16.9682C6.86221 16.7231 6.24216 16.4277 5.64835 16.0847C5.63756 16.0784 5.6285 16.0695 5.62197 16.0588C5.61544 16.0481 5.61163 16.036 5.61089 16.0235C5.61015 16.011 5.6125 15.9985 5.61773 15.9872C5.62296 15.9758 5.6309 15.9659 5.64087 15.9583C5.76547 15.865 5.89014 15.7679 6.00912 15.6698C6.01969 15.6611 6.03248 15.6555 6.04605 15.6537C6.05963 15.6518 6.07344 15.6538 6.08593 15.6594C9.97624 17.4349 14.188 17.4349 18.0323 15.6594C18.0448 15.6535 18.0588 15.6512 18.0725 15.6529C18.0863 15.6545 18.0993 15.6601 18.1101 15.6689C18.2291 15.7669 18.3537 15.865 18.4792 15.9583C18.4893 15.9658 18.4973 15.9757 18.5026 15.987C18.5079 15.9983 18.5103 16.0108 18.5097 16.0233C18.509 16.0357 18.5053 16.0479 18.4989 16.0586C18.4924 16.0693 18.4834 16.0783 18.4727 16.0847C17.8802 16.4306 17.2596 16.7258 16.6175 16.9672C16.6075 16.971 16.5984 16.9769 16.5909 16.9844C16.5833 16.992 16.5775 17.001 16.5736 17.011C16.5698 17.0209 16.5682 17.0316 16.5687 17.0422C16.5693 17.0529 16.5722 17.0633 16.577 17.0728C16.9327 17.7594 17.3383 18.419 17.7904 19.0463C17.7996 19.0591 17.8126 19.0688 17.8276 19.0739C17.8425 19.0789 17.8587 19.0792 17.8738 19.0746C20.0118 18.4204 22.0225 17.4061 23.8192 16.0754C23.8279 16.069 23.8352 16.0608 23.8406 16.0514C23.8459 16.042 23.8492 16.0315 23.8501 16.0207C24.3459 10.8952 23.0201 6.44297 20.3356 2.49607ZM8.12486 13.3203C6.95359 13.3203 5.9885 12.2455 5.9885 10.9254C5.9885 9.60538 6.93487 8.53045 8.12486 8.53045C9.32414 8.53045 10.2799 9.61471 10.2612 10.9253C10.2612 12.2455 9.31476 13.3203 8.12486 13.3203ZM16.0236 13.3203C14.8524 13.3203 13.8873 12.2455 13.8873 10.9254C13.8873 9.60538 14.8336 8.53045 16.0236 8.53045C17.223 8.53045 18.1787 9.61471 18.1599 10.9253C18.1599 12.2455 17.223 13.3203 16.0236 13.3203Z" fill="white"/>
</svg>
