<svg width="20" height="24" viewBox="0 0 20 24" fill="none" xmlns="http://www.w3.org/2000/svg">
<path d="M19.2772 1.37672C19.2772 0.785291 18.7933 0.301392 18.2019 0.301392H2.07192C1.48048 0.301392 0.996582 0.785291 0.996582 1.37672V22.8834C0.996582 23.4748 1.48048 23.9587 2.07192 23.9587H18.2019C18.7933 23.9587 19.2772 23.4748 19.2772 22.8834V1.37672ZM17.1266 21.8081H3.14725V2.45206H17.1266V21.8081ZM5.70117 14.684C5.70117 14.1732 6.1313 13.7431 6.64208 13.7431H9.81431C10.3251 13.7431 10.7552 14.1732 10.7552 14.684C10.7552 15.1948 10.3251 15.6249 9.81431 15.6249H6.64208C6.10442 15.6249 5.70117 15.1948 5.70117 14.684ZM5.83558 10.3826C5.83558 9.87186 6.26572 9.44172 6.7765 9.44172H13.1747C13.6855 9.44172 14.1156 9.87186 14.1156 10.3826C14.1156 10.8934 13.6855 11.3236 13.1747 11.3236H6.7765C6.26572 11.3236 5.83558 10.8934 5.83558 10.3826ZM5.83558 6.35014C5.83558 5.83936 6.26572 5.40922 6.7765 5.40922H13.1747C13.6855 5.40922 14.1156 5.83936 14.1156 6.35014C14.1156 6.86092 13.6855 7.29106 13.1747 7.29106H6.7765C6.26572 7.29106 5.83558 6.86092 5.83558 6.35014ZM13.8199 14.0926C13.9812 14.2539 14.0888 14.4958 14.0888 14.7646C14.0888 15.0066 13.9812 15.2485 13.8199 15.4367C13.6586 15.598 13.3898 15.7056 13.1479 15.7056C12.9059 15.7056 12.664 15.598 12.4758 15.4367C12.2876 15.2754 12.2069 15.0335 12.2069 14.7646C12.2069 14.5227 12.3145 14.2807 12.4758 14.0926C12.8253 13.7431 13.4705 13.7431 13.8199 14.0926Z" fill="white" fill-opacity="0.85"/>
</svg>
