<svg width="20" height="24" viewBox="0 0 20 24" fill="none" xmlns="http://www.w3.org/2000/svg">
<path fill-rule="evenodd" clip-rule="evenodd" d="M0.199951 21.8001C0.199951 21.4287 0.347451 21.0727 0.610002 20.8101C0.872553 20.5475 1.22865 20.4001 1.59995 20.4001H18.4C18.7713 20.4001 19.1274 20.5475 19.3899 20.8101C19.6525 21.0727 19.8 21.4287 19.8 21.8001C19.8 22.1714 19.6525 22.5275 19.3899 22.79C19.1274 23.0526 18.7713 23.2001 18.4 23.2001H1.59995C1.22865 23.2001 0.872553 23.0526 0.610002 22.79C0.347451 22.5275 0.199951 22.1714 0.199951 21.8001ZM4.81015 11.0103C5.07269 10.7478 5.42872 10.6003 5.79995 10.6003C6.17118 10.6003 6.52721 10.7478 6.78975 11.0103L8.59995 12.8204V2.20005C8.59995 1.82875 8.74745 1.47265 9.01 1.2101C9.27255 0.947548 9.62865 0.800049 9.99995 0.800049C10.3713 0.800049 10.7274 0.947548 10.9899 1.2101C11.2525 1.47265 11.4 1.82875 11.4 2.20005V12.8204L13.2102 11.0103C13.3393 10.8765 13.4938 10.7699 13.6646 10.6965C13.8354 10.6231 14.0191 10.5845 14.205 10.5829C14.3909 10.5813 14.5752 10.6167 14.7473 10.6871C14.9193 10.7575 15.0757 10.8614 15.2071 10.9929C15.3386 11.1243 15.4425 11.2807 15.5129 11.4527C15.5833 11.6248 15.6187 11.8091 15.6171 11.995C15.6155 12.1809 15.5769 12.3646 15.5035 12.5354C15.4301 12.7062 15.3235 12.8607 15.1898 12.9898L10.9898 17.1898C10.7272 17.4523 10.3712 17.5998 9.99995 17.5998C9.62872 17.5998 9.27269 17.4523 9.01015 17.1898L4.81015 12.9898C4.54769 12.7273 4.40025 12.3713 4.40025 12C4.40025 11.6288 4.54769 11.2728 4.81015 11.0103Z" fill="white" fill-opacity="0.85"/>
</svg>
