<svg width="24" height="24" viewBox="0 0 24 24" fill="none" xmlns="http://www.w3.org/2000/svg">
<path d="M16.2146 7.47423C15.5277 3.24355 13.9074 0.273071 12.0218 0.273071C10.1363 0.273071 8.51601 3.24355 7.82906 7.47423H16.2146ZM7.47374 12.0223C7.47374 13.0741 7.53059 14.0832 7.63008 15.0544H16.4089C16.5083 14.0832 16.5652 13.0741 16.5652 12.0223C16.5652 10.9706 16.5083 9.96147 16.4089 8.99026H7.63008C7.53059 9.96147 7.47374 10.9706 7.47374 12.0223ZM22.8567 7.47423C21.5018 4.2574 18.7587 1.77015 15.3713 0.765782C16.5273 2.36709 17.3232 4.77853 17.7401 7.47423H22.8567ZM8.66761 0.765782C5.28497 1.77015 2.53716 4.2574 1.18694 7.47423H6.30355C6.71572 4.77853 7.51164 2.36709 8.66761 0.765782ZM23.3637 8.99026H17.9296C18.0291 9.98516 18.086 11.0037 18.086 12.0223C18.086 13.0409 18.0291 14.0595 17.9296 15.0544H23.3589C23.6195 14.0832 23.7664 13.0741 23.7664 12.0223C23.7664 10.9706 23.6195 9.96147 23.3637 8.99026ZM5.95771 12.0223C5.95771 11.0037 6.01456 9.98516 6.11405 8.99026H0.680017C0.424186 9.96147 0.272583 10.9706 0.272583 12.0223C0.272583 13.0741 0.424186 14.0832 0.680017 15.0544H6.10931C6.01456 14.0595 5.95771 13.0409 5.95771 12.0223ZM7.82906 16.5704C8.51601 20.8011 10.1363 23.7716 12.0218 23.7716C13.9074 23.7716 15.5277 20.8011 16.2146 16.5704H7.82906ZM15.3761 23.2789C18.7587 22.2745 21.5065 19.7873 22.8615 16.5704H17.7449C17.328 19.2661 16.532 21.6776 15.3761 23.2789ZM1.18694 16.5704C2.54189 19.7873 5.28497 22.2745 8.67235 23.2789C7.51638 21.6776 6.72046 19.2661 6.30355 16.5704H1.18694Z" fill="white"/>
</svg>
