<svg width="11" height="11" viewBox="0 0 11 11" fill="none" xmlns="http://www.w3.org/2000/svg">
<path d="M6.99247 3.58302C7.31247 3.9518 7.46247 4.45375 7.39247 4.98643C7.27247 5.96985 6.57246 6.31814 5.95247 6.31814C5.92247 6.31814 5.90247 6.31814 5.90247 6.31814V6.56399C5.90247 6.78936 5.72247 6.97375 5.50247 6.97375C5.28247 6.97375 5.10247 6.78936 5.10247 6.56399V6.23619C5.10247 5.89815 5.24247 5.49863 5.95247 5.49863C6.34246 5.49863 6.54247 5.29375 6.59247 4.88399C6.61247 4.75082 6.62247 4.39229 6.38247 4.12595C6.19247 3.91083 5.88246 3.79814 5.46246 3.79814C4.56246 3.79814 4.53247 4.40253 4.53247 4.46399C4.53247 4.68936 4.35247 4.87375 4.13247 4.87375C3.91247 4.87375 3.73247 4.68936 3.73247 4.46399C3.73247 4.05424 4.04246 2.97863 5.46246 2.97863C6.29246 2.97863 6.75247 3.30644 6.99247 3.58302ZM5.47246 7.32205C5.34246 7.32205 5.21246 7.37327 5.12246 7.4757C5.03246 7.5679 4.97246 7.70107 4.97246 7.83424C4.97246 7.96741 5.02246 8.10058 5.12246 8.19278C5.21246 8.28497 5.34246 8.34644 5.47246 8.34644C5.60246 8.34644 5.73246 8.29522 5.82246 8.19278C5.91246 8.10058 5.97246 7.96741 5.97246 7.83424C5.97246 7.70107 5.92246 7.5679 5.82246 7.4757C5.74246 7.38351 5.61246 7.32205 5.47246 7.32205ZM10.1025 5.68302C10.1025 8.28497 8.04246 10.3952 5.50247 10.3952C2.96247 10.3952 0.902466 8.28497 0.902466 5.68302C0.902466 3.08107 2.96247 0.970825 5.50247 0.970825C8.04246 0.970825 10.1025 3.08107 10.1025 5.68302ZM9.30246 5.68302C9.30246 3.5318 7.60247 1.79034 5.50247 1.79034C3.40247 1.79034 1.70247 3.5318 1.70247 5.68302C1.70247 7.83424 3.40247 9.5757 5.50247 9.5757C7.60247 9.5757 9.30246 7.83424 9.30246 5.68302Z" fill="#85B6FF" fill-opacity="0.6"/>
</svg>
