<svg width="26" height="21" viewBox="0 0 26 21" fill="none" xmlns="http://www.w3.org/2000/svg">
<path d="M25.2399 3.25776C24.3485 3.65647 23.3873 3.92178 22.3837 4.04003C23.4115 3.42452 24.1984 2.44819 24.5728 1.28691C23.6117 1.85542 22.5444 2.27233 21.4134 2.49519C20.5038 1.52796 19.2106 0.927612 17.7795 0.927612C15.0309 0.927612 12.8054 3.15466 12.8054 5.90172C12.8054 6.28982 12.8478 6.66883 12.9327 7.03419C8.79699 6.82498 5.12971 4.84504 2.67525 1.83268C2.24925 2.56644 2.00213 3.42452 2.00213 4.33414C2.00213 6.05938 2.8784 7.58451 4.21403 8.47442C3.3984 8.45017 2.63129 8.22276 1.95817 7.85437C1.95817 7.87407 1.95817 7.89682 1.95817 7.91652C1.95817 10.3285 3.6728 12.3418 5.9514 12.7966C5.53449 12.9103 5.09332 12.9725 4.63851 12.9725C4.31712 12.9725 4.00784 12.9391 3.70009 12.883C4.33531 14.8584 6.17274 16.2987 8.34825 16.3411C6.64271 17.6767 4.50056 18.4727 2.16586 18.4727C1.7626 18.4727 1.36995 18.4484 0.977295 18.4014C3.18464 19.8174 5.7998 20.6376 8.609 20.6376C17.7613 20.6376 22.7703 13.0528 22.7703 6.47629C22.7703 6.25798 22.7657 6.04574 22.7566 5.83198C23.7284 5.13612 24.5713 4.25834 25.2384 3.25927L25.2399 3.25776Z" fill="white"/>
</svg>
